<svg xmlns="http://www.w3.org/2000/svg" viewBox="0 0 512 512">
  <rect width="512" height="512" fill="#FAF9F6"/>
  <g transform="translate(128, 100)">
    <path d="M128 16C128 16 96 56 96 96C96 112 102.67 125.87 113.07 136.27C90.67 130.67 69.33 117.33 53.33 96C53.33 96 42.67 138.67 74.67 170.67C90.67 186.67 109.87 192 128 192C146.13 192 165.33 186.67 181.33 170.67C213.33 138.67 202.67 96 202.67 96C186.67 117.33 165.33 130.67 142.93 136.27C153.33 125.87 160 112 160 96C160 56 128 16 128 16Z" fill="#C9A227"/>
    <path d="M128 192V240" stroke="#C9A227" stroke-width="16" stroke-linecap="round"/>
  </g>
</svg>