<svg xmlns="http://www.w3.org/2000/svg" viewBox="0 0 180 180">
  <rect width="180" height="180" fill="#FAF9F6"/>
  <g transform="translate(50, 40)">
    <path d="M40 5C40 5 30 17.5 30 30C30 35 31.67 39.33 34.33 42.67C28.33 40.67 21.67 36.67 16.67 30C16.67 30 13.33 43.33 23.33 53.33C28.33 58.33 34.33 60 40 60C45.67 60 51.67 58.33 56.67 53.33C66.67 43.33 63.33 30 63.33 30C58.33 36.67 51.67 40.67 45.67 42.67C48.33 39.33 50 35 50 30C50 17.5 40 5 40 5Z" fill="#C9A227"/>
    <path d="M40 60V75" stroke="#C9A227" stroke-width="6" stroke-linecap="round"/>
  </g>
</svg>